# xmcd CD database file
#
# Track frame offsets:
#	182
#	19645
#	36407
#	52957
#	72132
#	90157
#	114095
#	130507
#	146395
#	164945
#	183532
#	202770
#	219020
#	235470
#	255920
#	277345
#	295495
#	313470
#
# Disc length: 4482 seconds
#
# Revision: 5
# Processed by: cddbd v1.5.2PL0 Copyright (c) Steve Scherf et al.
# Submitted via: CDex 1.70beta2
#
DISCID=03118012
DTITLE=Vari - CD1 - Radiottanta
DYEAR=1996
DGENRE=Rock
TTITLE0=Lionel Richie - All Night Long
TTITLE1=Men At Work - Down Under
TTITLE2=Industry - State Of The Nation
TTITLE3=Re-Flex - Politics of Dancing
TTITLE4=Freur - Doot Doot
TTITLE5=Russ Ballard - Voices
TTITLE6=Erasure - Sometimes
TTITLE7=OMD - Enola Gay
TTITLE8=Dexy's Midnight Runners - Come On Ejleen
TTITLE9=New Order - Blue Monday
TTITLE10=Heaven 17 - Let Me Go
TTITLE11=Joan Armatrading - Drop The Pilot
TTITLE12=Style Council - My Ever Changing Moods
TTITLE13=Double - The Captain Of Her Heart
TTITLE14=Alphaville - Big In Japan
TTITLE15=Level 42 - Lessons In Love
TTITLE16=Robert Palmer - Johnny and Mary
TTITLE17=Bronski Beat - Smalltown Boy
EXTD=YEAR: 1996
EXTT0=
EXTT1=
EXTT2=
EXTT3=
EXTT4=
EXTT5=
EXTT6=
EXTT7=
EXTT8=
EXTT9=
EXTT10=
EXTT11=
EXTT12=
EXTT13=
EXTT14=
EXTT15=
EXTT16=
EXTT17=
PLAYORDER=
